<mxfile host="app.diagrams.net" modified="2023-06-12T20:27:23.367Z" agent="Mozilla/5.0 (Macintosh; Intel Mac OS X 10_15_7) AppleWebKit/537.36 (KHTML, like Gecko) Chrome/114.0.0.0 Safari/537.36" etag="u49vqmZ3nhR7nsbiSIIO" version="21.3.8" type="device">
  <diagram name="Page-1" id="2YBvvXClWsGukQMizWep">
    <mxGraphModel dx="4497" dy="2923" grid="0" gridSize="10" guides="1" tooltips="1" connect="1" arrows="1" fold="1" page="0" pageScale="1" pageWidth="850" pageHeight="1100" math="0" shadow="0">
      <root>
        <mxCell id="0" />
        <mxCell id="1" parent="0" />
        <mxCell id="eFFd4nhKhQjZXUS0AMBf-70" value="" style="group;movable=1;resizable=1;rotatable=1;deletable=1;editable=1;locked=0;connectable=1;" vertex="1" connectable="0" parent="1">
          <mxGeometry x="-110" y="-93" width="2580" height="1513" as="geometry" />
        </mxCell>
        <mxCell id="eFFd4nhKhQjZXUS0AMBf-22" value="" style="group;movable=1;resizable=1;rotatable=1;deletable=1;editable=1;locked=0;connectable=1;" vertex="1" connectable="0" parent="eFFd4nhKhQjZXUS0AMBf-70">
          <mxGeometry x="110" y="85.84397163120568" width="350" height="364.8368794326241" as="geometry" />
        </mxCell>
        <mxCell id="eFFd4nhKhQjZXUS0AMBf-1" value="&lt;font style=&quot;font-size: 22px;&quot;&gt;App Module&lt;/font&gt;" style="shape=module;align=left;spacingLeft=20;align=center;verticalAlign=top;whiteSpace=wrap;html=1;fillColor=#f5f5f5;strokeColor=#666666;fontColor=#333333;strokeWidth=4;movable=1;resizable=1;rotatable=1;deletable=1;editable=1;locked=0;connectable=1;" vertex="1" parent="eFFd4nhKhQjZXUS0AMBf-22">
          <mxGeometry width="350" height="364.8368794326241" as="geometry" />
        </mxCell>
        <mxCell id="eFFd4nhKhQjZXUS0AMBf-10" value="&lt;p style=&quot;margin: 6px 0px 0px; text-align: center; font-size: 12px;&quot;&gt;&lt;b style=&quot;font-size: 12px;&quot;&gt;App Component&lt;/b&gt;&lt;/p&gt;&lt;hr style=&quot;font-size: 12px;&quot;&gt;&lt;div style=&quot;background-color: rgb(255, 255, 255); font-family: &amp;quot;JetBrains Mono&amp;quot;, monospace; font-size: 12px;&quot;&gt;&lt;br style=&quot;font-size: 12px;&quot;&gt;&lt;/div&gt;" style="align=left;overflow=fill;html=1;dropTarget=0;whiteSpace=wrap;strokeColor=#666666;fontFamily=Helvetica;fontSize=12;fillColor=#f5f5f5;fontColor=#333333;strokeWidth=3;perimeterSpacing=4;dashed=1;movable=1;resizable=1;rotatable=1;deletable=1;editable=1;locked=0;connectable=1;" vertex="1" parent="eFFd4nhKhQjZXUS0AMBf-22">
          <mxGeometry x="30" y="42.92198581560284" width="300" height="139.4964539007092" as="geometry" />
        </mxCell>
        <mxCell id="eFFd4nhKhQjZXUS0AMBf-11" value="" style="shape=component;jettyWidth=8;jettyHeight=4;strokeColor=#666666;fontFamily=Helvetica;fontSize=12;fillColor=#f5f5f5;html=1;fontColor=#333333;strokeWidth=1;movable=1;resizable=1;rotatable=1;deletable=1;editable=1;locked=0;connectable=1;" vertex="1" parent="eFFd4nhKhQjZXUS0AMBf-10">
          <mxGeometry x="1" width="20" height="20" relative="1" as="geometry">
            <mxPoint x="-24" y="4" as="offset" />
          </mxGeometry>
        </mxCell>
        <mxCell id="eFFd4nhKhQjZXUS0AMBf-12" value="&lt;p style=&quot;margin: 4px 0px 0px; font-size: 12px;&quot;&gt;&lt;br style=&quot;font-size: 12px;&quot;&gt;&lt;b style=&quot;font-size: 12px;&quot;&gt;app.component.html&lt;/b&gt;&lt;/p&gt;&lt;hr style=&quot;font-size: 12px;&quot;&gt;&lt;div style=&quot;background-color: rgb(255, 255, 255); font-family: &amp;quot;JetBrains Mono&amp;quot;, monospace; font-size: 12px;&quot;&gt;&amp;lt;&lt;span style=&quot;color: rgb(0, 0, 128); background-color: rgb(239, 239, 239); font-weight: bold; font-size: 12px;&quot;&gt;router-outlet&lt;/span&gt;&lt;span style=&quot;background-color: rgb(239, 239, 239); font-size: 12px;&quot;&gt;&amp;gt;&amp;lt;/&lt;/span&gt;&lt;span style=&quot;color: rgb(0, 0, 128); background-color: rgb(239, 239, 239); font-weight: bold; font-size: 12px;&quot;&gt;router-outlet&lt;/span&gt;&lt;span style=&quot;background-color: rgb(239, 239, 239); font-size: 12px;&quot;&gt;&amp;gt;&lt;/span&gt;&lt;/div&gt;" style="verticalAlign=top;align=center;overflow=fill;fontSize=12;fontFamily=Helvetica;html=1;strokeColor=#666666;fillColor=#f5f5f5;fontColor=#333333;strokeWidth=1;movable=1;resizable=1;rotatable=1;deletable=1;editable=1;locked=0;connectable=1;" vertex="1" parent="eFFd4nhKhQjZXUS0AMBf-22">
          <mxGeometry x="45" y="85.84397163120568" width="270" height="85.84397163120568" as="geometry" />
        </mxCell>
        <mxCell id="eFFd4nhKhQjZXUS0AMBf-14" value="&lt;p style=&quot;margin: 4px 0px 0px; font-size: 12px;&quot;&gt;&lt;br style=&quot;font-size: 12px;&quot;&gt;&lt;b style=&quot;font-size: 12px;&quot;&gt;app-routing.module.ts&lt;/b&gt;&lt;/p&gt;&lt;hr style=&quot;font-size: 12px;&quot;&gt;&lt;div style=&quot;background-color: rgb(255, 255, 255); font-family: &amp;quot;JetBrains Mono&amp;quot;, monospace; font-size: 12px;&quot;&gt;&lt;div style=&quot;font-size: 12px;&quot;&gt;const &lt;span style=&quot;color: rgb(69, 131, 131); font-size: 12px;&quot;&gt;routes&lt;/span&gt;: Routes = [&lt;br style=&quot;font-size: 12px;&quot;&gt;  {&lt;span style=&quot;color: rgb(102, 14, 122); font-weight: bold; font-size: 12px;&quot;&gt;path&lt;/span&gt;: &lt;span style=&quot;color: rgb(0, 128, 0); font-weight: bold; font-size: 12px;&quot;&gt;&#39;&#39;&lt;/span&gt;, &lt;span style=&quot;color: rgb(122, 122, 67); font-size: 12px;&quot;&gt;loadChildren&lt;/span&gt;: () =&amp;gt; &lt;span style=&quot;color: rgb(0, 0, 128); font-weight: bold; font-size: 12px;&quot;&gt;import&lt;/span&gt;(&lt;span style=&quot;color: rgb(0, 128, 0); font-weight: bold; font-size: 12px;&quot;&gt;&#39;./movie/movie.module&#39;&lt;/span&gt;).&lt;span style=&quot;color: rgb(122, 122, 67); font-size: 12px;&quot;&gt;then&lt;/span&gt;(l =&amp;gt; l.MovieModule)},&lt;/div&gt;&lt;/div&gt;" style="verticalAlign=top;align=center;overflow=fill;fontSize=12;fontFamily=Helvetica;html=1;strokeColor=#666666;fillColor=#f5f5f5;whiteSpace=wrap;fontColor=#333333;strokeWidth=3;dashed=1;movable=1;resizable=1;rotatable=1;deletable=1;editable=1;locked=0;connectable=1;" vertex="1" parent="eFFd4nhKhQjZXUS0AMBf-22">
          <mxGeometry x="30" y="214.60992907801418" width="300" height="118.0354609929078" as="geometry" />
        </mxCell>
        <mxCell id="eFFd4nhKhQjZXUS0AMBf-15" style="edgeStyle=orthogonalEdgeStyle;rounded=0;orthogonalLoop=1;jettySize=auto;html=1;entryX=0.5;entryY=0;entryDx=0;entryDy=0;fontFamily=Helvetica;fontSize=12;fontColor=default;fillColor=#f5f5f5;strokeColor=#666666;strokeWidth=1;movable=1;resizable=1;rotatable=1;deletable=1;editable=1;locked=0;connectable=1;" edge="1" parent="eFFd4nhKhQjZXUS0AMBf-22" source="eFFd4nhKhQjZXUS0AMBf-12" target="eFFd4nhKhQjZXUS0AMBf-14">
          <mxGeometry relative="1" as="geometry" />
        </mxCell>
        <mxCell id="eFFd4nhKhQjZXUS0AMBf-23" value="" style="group;movable=1;resizable=1;rotatable=1;deletable=1;editable=1;locked=0;connectable=1;" vertex="1" connectable="0" parent="eFFd4nhKhQjZXUS0AMBf-70">
          <mxGeometry x="110" y="515.063829787234" width="360" height="386.2978723404255" as="geometry" />
        </mxCell>
        <mxCell id="eFFd4nhKhQjZXUS0AMBf-26" value="" style="group;movable=1;resizable=1;rotatable=1;deletable=1;editable=1;locked=0;connectable=1;" vertex="1" connectable="0" parent="eFFd4nhKhQjZXUS0AMBf-23">
          <mxGeometry width="360" height="386.2978723404255" as="geometry" />
        </mxCell>
        <mxCell id="eFFd4nhKhQjZXUS0AMBf-16" value="&lt;font style=&quot;font-size: 22px;&quot;&gt;Movie Module&lt;/font&gt;" style="shape=module;align=left;spacingLeft=20;align=center;verticalAlign=top;whiteSpace=wrap;html=1;fillColor=#f5f5f5;strokeColor=#666666;fontColor=#333333;strokeWidth=4;movable=1;resizable=1;rotatable=1;deletable=1;editable=1;locked=0;connectable=1;" vertex="1" parent="eFFd4nhKhQjZXUS0AMBf-26">
          <mxGeometry width="360.00000000000006" height="386.2978723404255" as="geometry" />
        </mxCell>
        <mxCell id="eFFd4nhKhQjZXUS0AMBf-17" value="&lt;p style=&quot;margin: 6px 0px 0px; text-align: center; font-size: 12px;&quot;&gt;&lt;b style=&quot;font-size: 12px;&quot;&gt;Movie Component&lt;/b&gt;&lt;/p&gt;&lt;hr style=&quot;font-size: 12px;&quot;&gt;&lt;div style=&quot;background-color: rgb(255, 255, 255); font-family: &amp;quot;JetBrains Mono&amp;quot;, monospace; font-size: 12px;&quot;&gt;&lt;br style=&quot;font-size: 12px;&quot;&gt;&lt;/div&gt;" style="align=left;overflow=fill;html=1;dropTarget=0;whiteSpace=wrap;strokeColor=#666666;fontFamily=Helvetica;fontSize=12;fillColor=#f5f5f5;fontColor=#333333;strokeWidth=3;perimeterSpacing=4;dashed=1;movable=1;resizable=1;rotatable=1;deletable=1;editable=1;locked=0;connectable=1;" vertex="1" parent="eFFd4nhKhQjZXUS0AMBf-26">
          <mxGeometry x="30.857142857142858" y="42.92198581560284" width="308.57142857142856" height="171.68794326241135" as="geometry" />
        </mxCell>
        <mxCell id="eFFd4nhKhQjZXUS0AMBf-18" value="" style="shape=component;jettyWidth=8;jettyHeight=4;strokeColor=#666666;fontFamily=Helvetica;fontSize=12;fillColor=#f5f5f5;html=1;fontColor=#333333;strokeWidth=1;movable=1;resizable=1;rotatable=1;deletable=1;editable=1;locked=0;connectable=1;" vertex="1" parent="eFFd4nhKhQjZXUS0AMBf-17">
          <mxGeometry x="1" width="20" height="20" relative="1" as="geometry">
            <mxPoint x="-24" y="4" as="offset" />
          </mxGeometry>
        </mxCell>
        <mxCell id="eFFd4nhKhQjZXUS0AMBf-20" value="&lt;p style=&quot;margin: 4px 0px 0px; font-size: 12px;&quot;&gt;&lt;br style=&quot;font-size: 12px;&quot;&gt;&lt;b style=&quot;font-size: 12px;&quot;&gt;moive.component.html&lt;/b&gt;&lt;/p&gt;&lt;hr style=&quot;font-size: 12px;&quot;&gt;&lt;div style=&quot;background-color: rgb(255, 255, 255); font-family: &amp;quot;JetBrains Mono&amp;quot;, monospace; font-size: 12px;&quot;&gt;&lt;div style=&quot;color: rgb(0, 0, 0); font-size: 12px;&quot;&gt;&amp;lt;&lt;span style=&quot;color: rgb(0, 0, 128); background-color: rgb(239, 239, 239); font-weight: bold; font-size: 12px;&quot;&gt;button &lt;/span&gt;&lt;span style=&quot;color: rgb(0, 0, 255); background-color: rgb(239, 239, 239); font-weight: bold; font-size: 12px;&quot;&gt;mat-mini-fab &lt;/span&gt;&lt;span style=&quot;color: rgb(102, 14, 122); background-color: rgb(239, 239, 239); font-weight: bold; font-size: 12px;&quot;&gt;[routerLink]&lt;/span&gt;&lt;span style=&quot;color: rgb(0, 128, 0); background-color: rgb(239, 239, 239); font-weight: bold; font-size: 12px;&quot;&gt;=&quot;&lt;/span&gt;&lt;span style=&quot;color: rgb(0, 128, 0); background-color: rgb(247, 250, 255); font-weight: bold; font-size: 12px;&quot;&gt;&#39;/ordering/&#39;&lt;/span&gt;&lt;span style=&quot;background-color: rgb(247, 250, 255); font-size: 12px;&quot;&gt;+ &lt;/span&gt;&lt;span style=&quot;color: rgb(102, 14, 122); background-color: rgb(247, 250, 255); font-weight: bold; font-style: italic; font-size: 12px;&quot;&gt;m&lt;/span&gt;&lt;span style=&quot;background-color: rgb(247, 250, 255); font-size: 12px;&quot;&gt;.&lt;/span&gt;&lt;span style=&quot;color: rgb(102, 14, 122); background-color: rgb(247, 250, 255); font-weight: bold; font-size: 12px;&quot;&gt;id&lt;/span&gt;&lt;span style=&quot;color: rgb(0, 128, 0); background-color: rgb(239, 239, 239); font-weight: bold; font-size: 12px;&quot;&gt;&quot;&lt;/span&gt;&lt;span style=&quot;background-color: rgb(239, 239, 239); font-size: 12px;&quot;&gt;&amp;gt;&lt;/span&gt;Order ticket&lt;span style=&quot;background-color: rgb(239, 239, 239); font-size: 12px;&quot;&gt;&amp;lt;/&lt;/span&gt;&lt;span style=&quot;color: rgb(0, 0, 128); background-color: rgb(239, 239, 239); font-weight: bold; font-size: 12px;&quot;&gt;button&lt;/span&gt;&lt;span style=&quot;background-color: rgb(239, 239, 239); font-size: 12px;&quot;&gt;&amp;gt;&lt;/span&gt;&lt;/div&gt;&lt;/div&gt;" style="verticalAlign=top;align=center;overflow=fill;fontSize=12;fontFamily=Helvetica;html=1;strokeColor=#666666;fillColor=#f5f5f5;fontColor=#333333;strokeWidth=1;whiteSpace=wrap;movable=1;resizable=1;rotatable=1;deletable=1;editable=1;locked=0;connectable=1;" vertex="1" parent="eFFd4nhKhQjZXUS0AMBf-26">
          <mxGeometry x="46.285714285714285" y="85.84397163120568" width="277.7142857142857" height="107.30496453900709" as="geometry" />
        </mxCell>
        <mxCell id="eFFd4nhKhQjZXUS0AMBf-21" value="&lt;p style=&quot;margin: 4px 0px 0px; font-size: 12px;&quot;&gt;&lt;br style=&quot;font-size: 12px;&quot;&gt;&lt;b style=&quot;font-size: 12px;&quot;&gt;movie-routing.module.ts&lt;/b&gt;&lt;/p&gt;&lt;hr style=&quot;font-size: 12px;&quot;&gt;&lt;div style=&quot;background-color: rgb(255, 255, 255); font-family: &amp;quot;JetBrains Mono&amp;quot;, monospace; font-size: 12px;&quot;&gt;&lt;div style=&quot;font-size: 12px;&quot;&gt;&lt;div style=&quot;color: rgb(0, 0, 0); font-size: 12px;&quot;&gt;{path:&lt;span style=&quot;color: rgb(0, 128, 0); font-weight: bold; font-size: 12px;&quot;&gt;&#39;ordering/:id&#39;&lt;/span&gt;, &lt;span style=&quot;color: rgb(102, 14, 122); font-weight: bold; font-size: 12px;&quot;&gt;component&lt;/span&gt;:OrderingComponent}&lt;/div&gt;&lt;/div&gt;&lt;/div&gt;" style="verticalAlign=top;align=center;overflow=fill;fontSize=12;fontFamily=Helvetica;html=1;strokeColor=#666666;fillColor=#f5f5f5;whiteSpace=wrap;fontColor=#333333;strokeWidth=3;dashed=1;movable=1;resizable=1;rotatable=1;deletable=1;editable=1;locked=0;connectable=1;" vertex="1" parent="eFFd4nhKhQjZXUS0AMBf-26">
          <mxGeometry x="30.857142857142858" y="246.8014184397163" width="308.57142857142856" height="96.57446808510637" as="geometry" />
        </mxCell>
        <mxCell id="eFFd4nhKhQjZXUS0AMBf-19" style="edgeStyle=orthogonalEdgeStyle;rounded=0;orthogonalLoop=1;jettySize=auto;html=1;entryX=0.5;entryY=0;entryDx=0;entryDy=0;fontFamily=Helvetica;fontSize=12;fontColor=default;fillColor=#f5f5f5;strokeColor=#666666;strokeWidth=1;movable=1;resizable=1;rotatable=1;deletable=1;editable=1;locked=0;connectable=1;" edge="1" parent="eFFd4nhKhQjZXUS0AMBf-26" source="eFFd4nhKhQjZXUS0AMBf-20" target="eFFd4nhKhQjZXUS0AMBf-21">
          <mxGeometry relative="1" as="geometry" />
        </mxCell>
        <mxCell id="eFFd4nhKhQjZXUS0AMBf-25" style="edgeStyle=orthogonalEdgeStyle;rounded=0;orthogonalLoop=1;jettySize=auto;html=1;fontFamily=Helvetica;fontSize=12;fontColor=default;entryX=1;entryY=0.5;entryDx=0;entryDy=0;strokeWidth=2;movable=1;resizable=1;rotatable=1;deletable=1;editable=1;locked=0;connectable=1;" edge="1" parent="eFFd4nhKhQjZXUS0AMBf-70" source="eFFd4nhKhQjZXUS0AMBf-14" target="eFFd4nhKhQjZXUS0AMBf-20">
          <mxGeometry relative="1" as="geometry">
            <mxPoint x="580" y="761.8652482269503" as="targetPoint" />
            <Array as="points">
              <mxPoint x="560" y="359.47163120567376" />
              <mxPoint x="560" y="654.5602836879432" />
            </Array>
          </mxGeometry>
        </mxCell>
        <mxCell id="eFFd4nhKhQjZXUS0AMBf-29" value="" style="group;movable=1;resizable=1;rotatable=1;deletable=1;editable=1;locked=0;connectable=1;" vertex="1" connectable="0" parent="eFFd4nhKhQjZXUS0AMBf-70">
          <mxGeometry x="660" y="85.84397163120568" width="1220" height="1319.851063829787" as="geometry" />
        </mxCell>
        <mxCell id="eFFd4nhKhQjZXUS0AMBf-30" value="" style="group;movable=1;resizable=1;rotatable=1;deletable=1;editable=1;locked=0;connectable=1;" vertex="1" connectable="0" parent="eFFd4nhKhQjZXUS0AMBf-29">
          <mxGeometry x="-40" width="1220" height="1319.851063829787" as="geometry" />
        </mxCell>
        <mxCell id="eFFd4nhKhQjZXUS0AMBf-31" value="&lt;font style=&quot;font-size: 22px;&quot;&gt;Ordering Module&lt;/font&gt;" style="shape=module;align=left;spacingLeft=20;align=center;verticalAlign=top;whiteSpace=wrap;html=1;fillColor=#f5f5f5;strokeColor=#666666;fontColor=#333333;strokeWidth=4;movable=1;resizable=1;rotatable=1;deletable=1;editable=1;locked=0;connectable=1;" vertex="1" parent="eFFd4nhKhQjZXUS0AMBf-30">
          <mxGeometry width="1220" height="1319.851063829787" as="geometry" />
        </mxCell>
        <mxCell id="eFFd4nhKhQjZXUS0AMBf-32" value="&lt;p style=&quot;margin: 6px 0px 0px; text-align: center; font-size: 14px;&quot;&gt;&lt;b style=&quot;font-size: 14px;&quot;&gt;Ordering Component&lt;/b&gt;&lt;/p&gt;&lt;hr style=&quot;font-size: 14px;&quot;&gt;&lt;div style=&quot;background-color: rgb(255, 255, 255); font-family: &amp;quot;JetBrains Mono&amp;quot;, monospace; font-size: 14px;&quot;&gt;&lt;br style=&quot;font-size: 14px;&quot;&gt;&lt;/div&gt;" style="align=left;overflow=fill;html=1;dropTarget=0;whiteSpace=wrap;strokeColor=#82b366;fontFamily=Helvetica;fontSize=14;fillColor=#d5e8d4;strokeWidth=3;perimeterSpacing=4;dashed=1;movable=1;resizable=1;rotatable=1;deletable=1;editable=1;locked=0;connectable=1;" vertex="1" parent="eFFd4nhKhQjZXUS0AMBf-30">
          <mxGeometry x="104.57" y="49.87534751773049" width="1045.71" height="1227.053730496454" as="geometry" />
        </mxCell>
        <mxCell id="eFFd4nhKhQjZXUS0AMBf-33" value="" style="shape=component;jettyWidth=8;jettyHeight=4;strokeColor=#666666;fontFamily=Helvetica;fontSize=14;fillColor=#f5f5f5;html=1;fontColor=#333333;strokeWidth=1;movable=1;resizable=1;rotatable=1;deletable=1;editable=1;locked=0;connectable=1;" vertex="1" parent="eFFd4nhKhQjZXUS0AMBf-32">
          <mxGeometry x="1" width="20" height="20" relative="1" as="geometry">
            <mxPoint x="-24" y="4" as="offset" />
          </mxGeometry>
        </mxCell>
        <mxCell id="eFFd4nhKhQjZXUS0AMBf-39" style="edgeStyle=orthogonalEdgeStyle;rounded=0;orthogonalLoop=1;jettySize=auto;html=1;entryX=0.5;entryY=0;entryDx=0;entryDy=0;fontFamily=Helvetica;fontSize=14;fontColor=default;strokeWidth=2;movable=1;resizable=1;rotatable=1;deletable=1;editable=1;locked=0;connectable=1;" edge="1" parent="eFFd4nhKhQjZXUS0AMBf-30" source="eFFd4nhKhQjZXUS0AMBf-34" target="eFFd4nhKhQjZXUS0AMBf-38">
          <mxGeometry relative="1" as="geometry" />
        </mxCell>
        <mxCell id="eFFd4nhKhQjZXUS0AMBf-34" value="&lt;p style=&quot;margin: 4px 0px 0px; font-size: 14px;&quot;&gt;&lt;br style=&quot;font-size: 14px;&quot;&gt;&lt;b style=&quot;font-size: 14px;&quot;&gt;ordering.component.html&lt;/b&gt;&lt;/p&gt;&lt;hr style=&quot;font-size: 14px;&quot;&gt;&lt;div style=&quot;background-color: rgb(255, 255, 255); font-family: &amp;quot;JetBrains Mono&amp;quot;, monospace; font-size: 14px;&quot;&gt;&lt;div style=&quot;color: rgb(0, 0, 0); font-size: 14px;&quot;&gt;&lt;div style=&quot;font-size: 14px;&quot;&gt;&lt;div style=&quot;text-align: left; font-size: 14px;&quot;&gt;&lt;span style=&quot;font-size: 14px;&quot;&gt;&amp;lt;&lt;/span&gt;&lt;span style=&quot;font-size: 14px; color: rgb(0, 0, 128); background-color: rgb(239, 239, 239); font-weight: bold;&quot;&gt;div &lt;/span&gt;&lt;span style=&quot;font-size: 14px; color: rgb(102, 14, 122); background-color: rgb(239, 239, 239); font-weight: bold; font-style: italic;&quot;&gt;*ngFor&lt;/span&gt;&lt;span style=&quot;font-size: 14px; color: rgb(0, 128, 0); background-color: rgb(239, 239, 239); font-weight: bold;&quot;&gt;=&quot;&lt;/span&gt;&lt;span style=&quot;font-size: 14px; color: rgb(0, 0, 128); background-color: rgb(247, 250, 255); font-weight: bold;&quot;&gt;let &lt;/span&gt;&lt;span style=&quot;font-size: 14px; color: rgb(102, 14, 122); background-color: rgb(247, 250, 255); font-weight: bold; font-style: italic;&quot;&gt;p &lt;/span&gt;&lt;span style=&quot;font-size: 14px; background-color: rgb(247, 250, 255);&quot;&gt;of &lt;/span&gt;&lt;span style=&quot;font-size: 14px; color: rgb(102, 14, 122); background-color: rgb(247, 250, 255); font-weight: bold;&quot;&gt;projectionPlans&lt;/span&gt;&lt;span style=&quot;font-size: 14px; color: rgb(0, 128, 0); background-color: rgb(239, 239, 239); font-weight: bold;&quot;&gt;&quot;&lt;/span&gt;&lt;span style=&quot;font-size: 14px; background-color: rgb(239, 239, 239);&quot;&gt;&amp;gt;&lt;/span&gt;&lt;/div&gt;  &lt;span style=&quot;background-color: rgb(239, 239, 239); font-size: 14px;&quot;&gt;&lt;div style=&quot;text-align: left; font-size: 14px;&quot;&gt;&lt;span style=&quot;font-size: 14px;&quot;&gt;&amp;nbsp; &amp;lt;&lt;/span&gt;&lt;span style=&quot;font-size: 14px; color: rgb(0, 0, 128); font-weight: bold;&quot;&gt;button &lt;/span&gt;&lt;span style=&quot;font-size: 14px; color: rgb(102, 14, 122); font-weight: bold;&quot;&gt;(click)&lt;/span&gt;&lt;span style=&quot;font-size: 14px; color: rgb(0, 128, 0); font-weight: bold;&quot;&gt;=&quot;&lt;/span&gt;&lt;span style=&quot;font-size: 14px; color: rgb(122, 122, 67); background-color: rgb(247, 250, 255);&quot;&gt;getSitList&lt;/span&gt;&lt;span style=&quot;font-size: 14px; background-color: rgb(247, 250, 255);&quot;&gt;(&lt;/span&gt;&lt;span style=&quot;font-size: 14px; color: rgb(102, 14, 122); background-color: rgb(247, 250, 255); font-weight: bold; font-style: italic;&quot;&gt;p&lt;/span&gt;&lt;span style=&quot;font-size: 14px; background-color: rgb(247, 250, 255);&quot;&gt;)&lt;/span&gt;&lt;span style=&quot;font-size: 14px; color: rgb(0, 128, 0); font-weight: bold;&quot;&gt;&quot; &lt;/span&gt;&lt;span style=&quot;font-size: 14px;&quot;&gt;&amp;gt;&lt;/span&gt;&lt;/div&gt;&lt;/span&gt;&lt;div style=&quot;text-align: left; font-size: 14px;&quot;&gt;&lt;span style=&quot;font-size: 14px; background-color: rgb(239, 239, 239);&quot;&gt;&amp;nbsp; &amp;nbsp; &amp;nbsp;&amp;lt;&lt;/span&gt;&lt;span style=&quot;font-size: 14px; color: rgb(0, 0, 128); background-color: rgb(239, 239, 239); font-weight: bold;&quot;&gt;div&lt;/span&gt;&lt;span style=&quot;font-size: 14px; background-color: rgb(239, 239, 239);&quot;&gt;&amp;gt;&lt;/span&gt;&lt;span style=&quot;font-size: 14px;&quot;&gt;Theatre: &lt;/span&gt;&lt;span style=&quot;font-size: 14px; background-color: rgb(247, 250, 255);&quot;&gt;{{&lt;/span&gt;&lt;span style=&quot;font-size: 14px; color: rgb(102, 14, 122); background-color: rgb(247, 250, 255); font-weight: bold; font-style: italic;&quot;&gt;p&lt;/span&gt;&lt;span style=&quot;font-size: 14px; background-color: rgb(247, 250, 255);&quot;&gt;.&lt;/span&gt;&lt;span style=&quot;font-size: 14px; color: rgb(102, 14, 122); background-color: rgb(247, 250, 255); font-weight: bold;&quot;&gt;theatreId&lt;/span&gt;&lt;span style=&quot;font-size: 14px; background-color: rgb(247, 250, 255);&quot;&gt;}}&lt;/span&gt;&lt;span style=&quot;font-size: 14px; background-color: rgb(239, 239, 239);&quot;&gt;&amp;lt;/&lt;/span&gt;&lt;span style=&quot;font-size: 14px; color: rgb(0, 0, 128); background-color: rgb(239, 239, 239); font-weight: bold;&quot;&gt;div&lt;/span&gt;&lt;span style=&quot;font-size: 14px; background-color: rgb(239, 239, 239);&quot;&gt;&amp;gt;&lt;/span&gt;&lt;/div&gt;        &lt;span style=&quot;background-color: rgb(239, 239, 239); font-size: 14px;&quot;&gt;&lt;div style=&quot;text-align: left; font-size: 14px;&quot;&gt;&lt;span style=&quot;font-size: 14px;&quot;&gt;&amp;nbsp; &amp;nbsp; &amp;nbsp;&amp;lt;&lt;/span&gt;&lt;span style=&quot;font-size: 14px; color: rgb(0, 0, 128); font-weight: bold;&quot;&gt;div&lt;/span&gt;&lt;span style=&quot;font-size: 14px;&quot;&gt;&amp;gt;&lt;/span&gt;&lt;span style=&quot;font-size: 14px; background-color: rgb(255, 255, 255);&quot;&gt;Time: &lt;/span&gt;&lt;span style=&quot;font-size: 14px; background-color: rgb(247, 250, 255);&quot;&gt;{{&lt;/span&gt;&lt;span style=&quot;font-size: 14px; color: rgb(102, 14, 122); background-color: rgb(247, 250, 255); font-weight: bold; font-style: italic;&quot;&gt;p&lt;/span&gt;&lt;span style=&quot;font-size: 14px; background-color: rgb(247, 250, 255);&quot;&gt;.&lt;/span&gt;&lt;span style=&quot;font-size: 14px; color: rgb(102, 14, 122); background-color: rgb(247, 250, 255); font-weight: bold;&quot;&gt;startTime&lt;/span&gt;&lt;span style=&quot;font-size: 14px; background-color: rgb(247, 250, 255);&quot;&gt;}}&lt;/span&gt;&lt;span style=&quot;font-size: 14px;&quot;&gt;&amp;lt;/&lt;/span&gt;&lt;span style=&quot;font-size: 14px; color: rgb(0, 0, 128); font-weight: bold;&quot;&gt;div&lt;/span&gt;&lt;span style=&quot;font-size: 14px;&quot;&gt;&amp;gt;&lt;/span&gt;&lt;/div&gt;&lt;/span&gt;&lt;div style=&quot;text-align: left; font-size: 14px;&quot;&gt;&lt;span style=&quot;font-size: 14px; background-color: rgb(239, 239, 239);&quot;&gt;&amp;nbsp; &amp;lt;/&lt;/span&gt;&lt;span style=&quot;font-size: 14px; color: rgb(0, 0, 128); background-color: rgb(239, 239, 239); font-weight: bold;&quot;&gt;button&lt;/span&gt;&lt;span style=&quot;font-size: 14px; background-color: rgb(239, 239, 239);&quot;&gt;&amp;gt;&lt;/span&gt;&lt;/div&gt;    &lt;span style=&quot;background-color: rgb(239, 239, 239); font-size: 14px;&quot;&gt;&lt;div style=&quot;text-align: left; font-size: 14px;&quot;&gt;&lt;span style=&quot;font-size: 14px;&quot;&gt;&amp;nbsp; &amp;lt;&lt;/span&gt;&lt;span style=&quot;font-size: 14px; color: rgb(0, 0, 128); font-weight: bold;&quot;&gt;hr&lt;/span&gt;&lt;span style=&quot;font-size: 14px;&quot;&gt;&amp;gt;&lt;/span&gt;&lt;/div&gt;&lt;/span&gt;&lt;span style=&quot;background-color: rgb(239, 239, 239); font-size: 14px;&quot;&gt;&lt;div style=&quot;text-align: left; font-size: 14px;&quot;&gt;&lt;span style=&quot;font-size: 14px;&quot;&gt;&amp;lt;/&lt;/span&gt;&lt;span style=&quot;font-size: 14px; color: rgb(0, 0, 128); font-weight: bold;&quot;&gt;div&lt;/span&gt;&lt;span style=&quot;font-size: 14px;&quot;&gt;&amp;gt;&lt;/span&gt;&lt;/div&gt;&lt;div style=&quot;text-align: left; font-size: 14px;&quot;&gt;&lt;span style=&quot;font-size: 14px;&quot;&gt;&lt;br style=&quot;font-size: 14px;&quot;&gt;&lt;/span&gt;&lt;/div&gt;&lt;div style=&quot;text-align: left; font-size: 14px;&quot;&gt;&lt;div style=&quot;background-color: rgb(255, 255, 255); font-size: 14px;&quot;&gt;&amp;lt;&lt;span style=&quot;color: rgb(0, 0, 128); background-color: rgb(239, 239, 239); font-weight: bold; font-size: 14px;&quot;&gt;span &lt;/span&gt;&lt;span style=&quot;color: rgb(102, 14, 122); background-color: rgb(239, 239, 239); font-weight: bold; font-style: italic; font-size: 14px;&quot;&gt;*ngFor&lt;/span&gt;&lt;span style=&quot;color: rgb(0, 128, 0); background-color: rgb(239, 239, 239); font-weight: bold; font-size: 14px;&quot;&gt;=&quot;&lt;/span&gt;&lt;span style=&quot;color: rgb(0, 0, 128); background-color: rgb(247, 250, 255); font-weight: bold; font-size: 14px;&quot;&gt;let &lt;/span&gt;&lt;span style=&quot;color: rgb(102, 14, 122); background-color: rgb(247, 250, 255); font-weight: bold; font-style: italic; font-size: 14px;&quot;&gt;s &lt;/span&gt;&lt;span style=&quot;background-color: rgb(247, 250, 255); font-size: 14px;&quot;&gt;of &lt;/span&gt;&lt;span style=&quot;color: rgb(102, 14, 122); background-color: rgb(247, 250, 255); font-weight: bold; font-size: 14px;&quot;&gt;sitsNumbers&lt;/span&gt;&lt;span style=&quot;color: rgb(0, 128, 0); background-color: rgb(239, 239, 239); font-weight: bold; font-size: 14px;&quot;&gt;&quot;&lt;/span&gt;&lt;span style=&quot;background-color: rgb(239, 239, 239); font-size: 14px;&quot;&gt;&amp;gt;&lt;/span&gt;&lt;br style=&quot;font-size: 14px;&quot;&gt;  &lt;span style=&quot;background-color: rgb(239, 239, 239); font-size: 14px;&quot;&gt;&amp;lt;&lt;/span&gt;&lt;span style=&quot;color: rgb(0, 0, 128); background-color: rgb(239, 239, 239); font-weight: bold; font-size: 14px;&quot;&gt;button &lt;/span&gt;&lt;span style=&quot;color: rgb(0, 0, 255); background-color: rgb(239, 239, 239); font-weight: bold; font-size: 14px;&quot;&gt;mat-stroked-button &lt;/span&gt;&lt;span style=&quot;color: rgb(102, 14, 122); background-color: rgb(239, 239, 239); font-weight: bold; font-size: 14px;&quot;&gt;(click)&lt;/span&gt;&lt;span style=&quot;color: rgb(0, 128, 0); background-color: rgb(239, 239, 239); font-weight: bold; font-size: 14px;&quot;&gt;=&quot;&lt;/span&gt;&lt;span style=&quot;color: rgb(122, 122, 67); background-color: rgb(247, 250, 255); font-size: 14px;&quot;&gt;setOrder&lt;/span&gt;&lt;span style=&quot;background-color: rgb(247, 250, 255); font-size: 14px;&quot;&gt;(&lt;/span&gt;&lt;span style=&quot;color: rgb(102, 14, 122); background-color: rgb(247, 250, 255); font-weight: bold; font-style: italic; font-size: 14px;&quot;&gt;s&lt;/span&gt;&lt;span style=&quot;background-color: rgb(247, 250, 255); font-size: 14px;&quot;&gt;)&lt;/span&gt;&lt;span style=&quot;color: rgb(0, 128, 0); background-color: rgb(239, 239, 239); font-weight: bold; font-size: 14px;&quot;&gt;&quot;&lt;/span&gt;&lt;span style=&quot;background-color: rgb(239, 239, 239); font-size: 14px;&quot;&gt;&amp;gt;&lt;/span&gt;&lt;br style=&quot;font-size: 14px;&quot;&gt;    &lt;span style=&quot;background-color: rgb(247, 250, 255); font-size: 14px;&quot;&gt;{{&lt;/span&gt;&lt;span style=&quot;color: rgb(102, 14, 122); background-color: rgb(247, 250, 255); font-weight: bold; font-style: italic; font-size: 14px;&quot;&gt;s&lt;/span&gt;&lt;span style=&quot;background-color: rgb(247, 250, 255); font-size: 14px;&quot;&gt;}}&lt;/span&gt;&lt;br style=&quot;font-size: 14px;&quot;&gt;  &lt;span style=&quot;background-color: rgb(239, 239, 239); font-size: 14px;&quot;&gt;&amp;lt;/&lt;/span&gt;&lt;span style=&quot;color: rgb(0, 0, 128); background-color: rgb(239, 239, 239); font-weight: bold; font-size: 14px;&quot;&gt;button&lt;/span&gt;&lt;span style=&quot;background-color: rgb(239, 239, 239); font-size: 14px;&quot;&gt;&amp;gt;&lt;/span&gt;&lt;br style=&quot;font-size: 14px;&quot;&gt;&lt;span style=&quot;background-color: rgb(239, 239, 239); font-size: 14px;&quot;&gt;&amp;lt;/&lt;/span&gt;&lt;span style=&quot;color: rgb(0, 0, 128); background-color: rgb(239, 239, 239); font-weight: bold; font-size: 14px;&quot;&gt;span&lt;/span&gt;&lt;span style=&quot;background-color: rgb(239, 239, 239); font-size: 14px;&quot;&gt;&amp;gt;&lt;/span&gt;&lt;/div&gt;&lt;/div&gt;&lt;/span&gt;&lt;/div&gt;&lt;/div&gt;&lt;/div&gt;" style="verticalAlign=top;align=center;overflow=fill;fontSize=14;fontFamily=Helvetica;html=1;strokeColor=#d6b656;fillColor=#fff2cc;strokeWidth=1;whiteSpace=wrap;movable=1;resizable=1;rotatable=1;deletable=1;editable=1;locked=0;connectable=1;" vertex="1" parent="eFFd4nhKhQjZXUS0AMBf-30">
          <mxGeometry x="281.69" y="99.76142553191488" width="711.63" height="318.72793617021273" as="geometry" />
        </mxCell>
        <mxCell id="eFFd4nhKhQjZXUS0AMBf-38" value="&lt;p style=&quot;margin: 4px 0px 0px; font-size: 14px;&quot;&gt;&lt;br style=&quot;font-size: 14px;&quot;&gt;&lt;b style=&quot;font-size: 14px;&quot;&gt;ordering.component.ts&lt;/b&gt;&lt;/p&gt;&lt;hr style=&quot;font-size: 14px;&quot;&gt;&lt;div style=&quot;background-color: rgb(255, 255, 255); font-family: &amp;quot;JetBrains Mono&amp;quot;, monospace; font-size: 14px;&quot;&gt;&lt;div style=&quot;color: rgb(0, 0, 0); font-size: 14px;&quot;&gt;&lt;div style=&quot;font-size: 14px;&quot;&gt;&lt;div style=&quot;text-align: left; font-size: 14px;&quot;&gt;&lt;br style=&quot;font-size: 14px;&quot;&gt;&lt;/div&gt;&lt;div style=&quot;font-size: 14px;&quot;&gt;&lt;div style=&quot;font-size: 14px;&quot;&gt;&lt;div style=&quot;text-align: left; font-size: 14px;&quot;&gt;&lt;div style=&quot;font-size: 14px;&quot;&gt;constructor(&lt;br style=&quot;font-size: 14px;&quot;&gt;  &lt;span style=&quot;color: rgb(0, 0, 128); font-weight: bold; font-size: 14px;&quot;&gt;&amp;nbsp; private &lt;/span&gt;&lt;span style=&quot;color: rgb(102, 14, 122); font-weight: bold; font-size: 14px;&quot;&gt;route&lt;/span&gt;:ActivatedRoute,&lt;br style=&quot;font-size: 14px;&quot;&gt;  &lt;span style=&quot;color: rgb(0, 0, 128); font-weight: bold; font-size: 14px;&quot;&gt;&amp;nbsp; private &lt;/span&gt;&lt;span style=&quot;color: rgb(102, 14, 122); font-weight: bold; font-size: 14px;&quot;&gt;movieService&lt;/span&gt;:MovieService,&lt;br style=&quot;font-size: 14px;&quot;&gt;  &lt;span style=&quot;color: rgb(0, 0, 128); font-weight: bold; font-size: 14px;&quot;&gt;&amp;nbsp; private &lt;/span&gt;&lt;span style=&quot;color: rgb(102, 14, 122); font-weight: bold; font-size: 14px;&quot;&gt;projectionPlanService&lt;/span&gt;:ProjectionPlanService,&lt;br style=&quot;font-size: 14px;&quot;&gt;  &lt;span style=&quot;color: rgb(0, 0, 128); font-weight: bold; font-size: 14px;&quot;&gt;&amp;nbsp; private &lt;/span&gt;&lt;span style=&quot;color: rgb(102, 14, 122); font-weight: bold; font-size: 14px;&quot;&gt;theatreService&lt;/span&gt;:TheatreService,&lt;br style=&quot;font-size: 14px;&quot;&gt;  &lt;span style=&quot;color: rgb(0, 0, 128); font-weight: bold; font-size: 14px;&quot;&gt;&amp;nbsp; private &lt;/span&gt;&lt;span style=&quot;color: rgb(102, 14, 122); font-weight: bold; font-size: 14px;&quot;&gt;firebaseAuthService&lt;/span&gt;: FirebaseAuthService,&lt;br style=&quot;font-size: 14px;&quot;&gt;  &lt;span style=&quot;color: rgb(0, 0, 128); font-weight: bold; font-size: 14px;&quot;&gt;&amp;nbsp; private &lt;/span&gt;&lt;span style=&quot;color: rgb(102, 14, 122); font-weight: bold; font-size: 14px;&quot;&gt;httpService&lt;/span&gt;:HttpService&lt;br style=&quot;font-size: 14px;&quot;&gt;) {}&lt;/div&gt;&lt;/div&gt;&lt;/div&gt;&lt;/div&gt;&lt;div style=&quot;text-align: left; font-size: 14px;&quot;&gt;&lt;br style=&quot;font-size: 14px;&quot;&gt;&lt;/div&gt;&lt;div style=&quot;text-align: left; font-size: 14px;&quot;&gt;&lt;br style=&quot;font-size: 14px;&quot;&gt;&lt;/div&gt;&lt;div style=&quot;font-size: 14px;&quot;&gt;&lt;div style=&quot;text-align: left; font-size: 14px;&quot;&gt;&lt;span style=&quot;font-size: 14px;&quot;&gt;getSitList(p:ProjectionPlanDto) {&lt;/span&gt;&lt;/div&gt;  &lt;span style=&quot;color: rgb(0, 0, 128); font-weight: bold; font-size: 14px;&quot;&gt;&lt;div style=&quot;text-align: left; font-size: 14px;&quot;&gt;&lt;span style=&quot;font-size: 14px;&quot;&gt;&amp;nbsp; this&lt;/span&gt;&lt;span style=&quot;font-size: 14px; color: rgb(0, 0, 0); font-weight: normal;&quot;&gt;.&lt;/span&gt;&lt;span style=&quot;font-size: 14px; color: rgb(102, 14, 122);&quot;&gt;sitsNumbers &lt;/span&gt;&lt;span style=&quot;font-size: 14px; color: rgb(0, 0, 0); font-weight: normal;&quot;&gt;= [];&lt;/span&gt;&lt;/div&gt;&lt;/span&gt;&lt;div style=&quot;text-align: left; font-size: 14px;&quot;&gt;&lt;span style=&quot;font-size: 14px; color: rgb(0, 0, 128); font-weight: bold;&quot;&gt;&amp;nbsp; this&lt;/span&gt;&lt;span style=&quot;font-size: 14px;&quot;&gt;.&lt;/span&gt;&lt;span style=&quot;font-size: 14px; color: rgb(102, 14, 122); font-weight: bold;&quot;&gt;theatreService&lt;/span&gt;&lt;span style=&quot;font-size: 14px;&quot;&gt;.&lt;/span&gt;&lt;span style=&quot;font-size: 14px; color: rgb(122, 122, 67);&quot;&gt;getTheatre&lt;/span&gt;&lt;span style=&quot;font-size: 14px;&quot;&gt;(p.&lt;/span&gt;&lt;span style=&quot;font-size: 14px; color: rgb(102, 14, 122); font-weight: bold;&quot;&gt;theatreId&lt;/span&gt;&lt;span style=&quot;font-size: 14px;&quot;&gt;)&lt;/span&gt;&lt;/div&gt;  &lt;div style=&quot;text-align: left; font-size: 14px;&quot;&gt;&lt;span style=&quot;font-size: 14px;&quot;&gt;&amp;nbsp; &amp;nbsp; &amp;nbsp; .&lt;/span&gt;&lt;span style=&quot;font-size: 14px; color: rgb(122, 122, 67);&quot;&gt;then&lt;/span&gt;&lt;span style=&quot;font-size: 14px;&quot;&gt;(theatre =&amp;gt; {&lt;/span&gt;&lt;/div&gt;      &lt;span style=&quot;color: rgb(0, 0, 128); font-weight: bold; font-size: 14px;&quot;&gt;&lt;div style=&quot;text-align: left; font-size: 14px;&quot;&gt;&lt;span style=&quot;font-size: 14px;&quot;&gt;&amp;nbsp; &amp;nbsp; &amp;nbsp; &amp;nbsp; &amp;nbsp; for &lt;/span&gt;&lt;span style=&quot;font-size: 14px; color: rgb(0, 0, 0); font-weight: normal;&quot;&gt;(&lt;/span&gt;&lt;span style=&quot;font-size: 14px;&quot;&gt;let &lt;/span&gt;&lt;span style=&quot;font-size: 14px; font-weight: normal; color: rgb(69, 131, 131);&quot;&gt;i &lt;/span&gt;&lt;span style=&quot;font-size: 14px; color: rgb(0, 0, 0); font-weight: normal;&quot;&gt;= &lt;/span&gt;&lt;span style=&quot;font-size: 14px; font-weight: normal; color: rgb(0, 0, 255);&quot;&gt;1&lt;/span&gt;&lt;span style=&quot;font-size: 14px; color: rgb(0, 0, 0); font-weight: normal;&quot;&gt;; &lt;/span&gt;&lt;span style=&quot;font-size: 14px; font-weight: normal; color: rgb(69, 131, 131);&quot;&gt;i &lt;/span&gt;&lt;span style=&quot;font-size: 14px; color: rgb(0, 0, 0); font-weight: normal;&quot;&gt;&amp;lt;= theatre.&lt;/span&gt;&lt;span style=&quot;font-size: 14px; color: rgb(102, 14, 122);&quot;&gt;sitNumber&lt;/span&gt;&lt;span style=&quot;font-size: 14px; color: rgb(0, 0, 0); font-weight: normal;&quot;&gt;; &lt;/span&gt;&lt;span style=&quot;font-size: 14px; font-weight: normal; color: rgb(69, 131, 131);&quot;&gt;i&lt;/span&gt;&lt;span style=&quot;font-size: 14px; color: rgb(0, 0, 0); font-weight: normal;&quot;&gt;++) {&lt;/span&gt;&lt;/div&gt;&lt;/span&gt;&lt;div style=&quot;text-align: left; font-size: 14px;&quot;&gt;&lt;span style=&quot;font-size: 14px; color: rgb(0, 0, 128); font-weight: bold;&quot;&gt;&amp;nbsp; &amp;nbsp; &amp;nbsp; &amp;nbsp; &amp;nbsp; &amp;nbsp; &amp;nbsp; this&lt;/span&gt;&lt;span style=&quot;font-size: 14px;&quot;&gt;.&lt;/span&gt;&lt;span style=&quot;font-size: 14px; color: rgb(102, 14, 122); font-weight: bold;&quot;&gt;sitsNumbers&lt;/span&gt;&lt;span style=&quot;font-size: 14px;&quot;&gt;.&lt;/span&gt;&lt;span style=&quot;font-size: 14px; color: rgb(122, 122, 67);&quot;&gt;push&lt;/span&gt;&lt;span style=&quot;font-size: 14px;&quot;&gt;(&lt;/span&gt;&lt;span style=&quot;font-size: 14px; color: rgb(69, 131, 131);&quot;&gt;i&lt;/span&gt;&lt;span style=&quot;font-size: 14px;&quot;&gt;);&lt;/span&gt;&lt;/div&gt;        &lt;div style=&quot;text-align: left; font-size: 14px;&quot;&gt;&lt;span style=&quot;font-size: 14px;&quot;&gt;&amp;nbsp; &amp;nbsp; &amp;nbsp; &amp;nbsp; &amp;nbsp; }&lt;/span&gt;&lt;/div&gt;&lt;div style=&quot;text-align: left; font-size: 14px;&quot;&gt;&lt;span style=&quot;font-size: 14px;&quot;&gt;&amp;nbsp; &amp;nbsp; &amp;nbsp; &amp;nbsp;})&lt;/span&gt;&lt;/div&gt;  &lt;span style=&quot;color: rgb(0, 0, 128); font-weight: bold; font-size: 14px;&quot;&gt;&lt;div style=&quot;text-align: left; font-size: 14px;&quot;&gt;&lt;span style=&quot;font-size: 14px;&quot;&gt;&amp;nbsp; this&lt;/span&gt;&lt;span style=&quot;font-size: 14px; color: rgb(0, 0, 0); font-weight: normal;&quot;&gt;.&lt;/span&gt;&lt;span style=&quot;font-size: 14px; color: rgb(102, 14, 122);&quot;&gt;projectionPlan &lt;/span&gt;&lt;span style=&quot;font-size: 14px; color: rgb(0, 0, 0); font-weight: normal;&quot;&gt;= p;&lt;/span&gt;&lt;/div&gt;&lt;/span&gt;&lt;div style=&quot;text-align: left; font-size: 14px;&quot;&gt;&lt;span style=&quot;font-size: 14px;&quot;&gt;}&lt;/span&gt;&lt;/div&gt;&lt;div style=&quot;text-align: left; font-size: 14px;&quot;&gt;&lt;span style=&quot;font-size: 14px;&quot;&gt;&lt;br style=&quot;font-size: 14px;&quot;&gt;&lt;/span&gt;&lt;/div&gt;&lt;div style=&quot;text-align: left; font-size: 14px;&quot;&gt;&lt;span style=&quot;font-size: 14px;&quot;&gt;&lt;br style=&quot;font-size: 14px;&quot;&gt;&lt;/span&gt;&lt;/div&gt;&lt;div style=&quot;text-align: left; font-size: 14px;&quot;&gt;&lt;div style=&quot;font-size: 14px;&quot;&gt;setOrder(s:&lt;span style=&quot;color: rgb(0, 0, 128); font-weight: bold; font-size: 14px;&quot;&gt;number&lt;/span&gt;) {&lt;br style=&quot;font-size: 14px;&quot;&gt;  &lt;span style=&quot;color: rgb(0, 0, 128); font-weight: bold; font-size: 14px;&quot;&gt;&amp;nbsp; this&lt;/span&gt;.&lt;span style=&quot;color: rgb(102, 14, 122); font-weight: bold; font-size: 14px;&quot;&gt;order &lt;/span&gt;= {&lt;br style=&quot;font-size: 14px;&quot;&gt;    &lt;span style=&quot;color: rgb(102, 14, 122); font-weight: bold; font-size: 14px;&quot;&gt;&amp;nbsp; &amp;nbsp; orderId&lt;/span&gt;:&lt;span style=&quot;color: rgb(0, 0, 128); font-weight: bold; font-size: 14px;&quot;&gt;this&lt;/span&gt;.&lt;span style=&quot;color: rgb(102, 14, 122); font-weight: bold; font-size: 14px;&quot;&gt;projectionPlan&lt;/span&gt;.&lt;span style=&quot;color: rgb(102, 14, 122); font-weight: bold; font-size: 14px;&quot;&gt;id &lt;/span&gt;+ &lt;span style=&quot;color: rgb(0, 0, 128); font-weight: bold; font-size: 14px;&quot;&gt;this&lt;/span&gt;.&lt;span style=&quot;color: rgb(102, 14, 122); font-weight: bold; font-size: 14px;&quot;&gt;firebaseAuthService&lt;/span&gt;.&lt;span style=&quot;color: rgb(102, 14, 122); font-weight: bold; font-size: 14px;&quot;&gt;auth&lt;/span&gt;.&lt;span style=&quot;color: rgb(102, 14, 122); font-weight: bold; font-size: 14px;&quot;&gt;currentUser&lt;/span&gt;.&lt;span style=&quot;color: rgb(102, 14, 122); font-weight: bold; font-size: 14px;&quot;&gt;uid &lt;/span&gt;+ s,&lt;br style=&quot;font-size: 14px;&quot;&gt;    &lt;span style=&quot;color: rgb(102, 14, 122); font-weight: bold; font-size: 14px;&quot;&gt;&amp;nbsp; &amp;nbsp; projectionPlanId&lt;/span&gt;: &lt;span style=&quot;color: rgb(0, 0, 128); font-weight: bold; font-size: 14px;&quot;&gt;this&lt;/span&gt;.&lt;span style=&quot;color: rgb(102, 14, 122); font-weight: bold; font-size: 14px;&quot;&gt;projectionPlan&lt;/span&gt;.&lt;span style=&quot;color: rgb(102, 14, 122); font-weight: bold; font-size: 14px;&quot;&gt;id&lt;/span&gt;,&lt;br style=&quot;font-size: 14px;&quot;&gt;    &lt;span style=&quot;color: rgb(102, 14, 122); font-weight: bold; font-size: 14px;&quot;&gt;&amp;nbsp; &amp;nbsp; userId&lt;/span&gt;: &lt;span style=&quot;color: rgb(0, 0, 128); font-weight: bold; font-size: 14px;&quot;&gt;this&lt;/span&gt;.&lt;span style=&quot;color: rgb(102, 14, 122); font-weight: bold; font-size: 14px;&quot;&gt;firebaseAuthService&lt;/span&gt;.&lt;span style=&quot;color: rgb(102, 14, 122); font-weight: bold; font-size: 14px;&quot;&gt;auth&lt;/span&gt;.&lt;span style=&quot;color: rgb(102, 14, 122); font-weight: bold; font-size: 14px;&quot;&gt;currentUser&lt;/span&gt;.&lt;span style=&quot;color: rgb(102, 14, 122); font-weight: bold; font-size: 14px;&quot;&gt;uid&lt;/span&gt;,&lt;br style=&quot;font-size: 14px;&quot;&gt;    &lt;span style=&quot;color: rgb(102, 14, 122); font-weight: bold; font-size: 14px;&quot;&gt;&amp;nbsp; &amp;nbsp; sitNumber&lt;/span&gt;: s&lt;br style=&quot;font-size: 14px;&quot;&gt;&amp;nbsp; }&lt;br style=&quot;font-size: 14px;&quot;&gt;&lt;br style=&quot;font-size: 14px;&quot;&gt;  &lt;span style=&quot;font-style: italic; font-size: 14px;&quot;&gt;&amp;nbsp; alert&lt;/span&gt;(&lt;span style=&quot;color: rgb(0, 128, 0); font-weight: bold; font-size: 14px;&quot;&gt;&quot;You have been choose :&quot; &lt;/span&gt;+ &lt;span style=&quot;color: rgb(0, 0, 128); font-weight: bold; font-size: 14px;&quot;&gt;this&lt;/span&gt;.&lt;span style=&quot;color: rgb(102, 14, 122); font-weight: bold; font-size: 14px;&quot;&gt;order&lt;/span&gt;.&lt;span style=&quot;color: rgb(102, 14, 122); font-weight: bold; font-size: 14px;&quot;&gt;projectionPlanId &lt;/span&gt;+ &lt;span style=&quot;color: rgb(0, 128, 0); font-weight: bold; font-size: 14px;&quot;&gt;&#39;   &#39; &lt;/span&gt;+ &lt;span style=&quot;color: rgb(0, 0, 128); font-weight: bold; font-size: 14px;&quot;&gt;this&lt;/span&gt;.&lt;span style=&quot;color: rgb(102, 14, 122); font-weight: bold; font-size: 14px;&quot;&gt;order&lt;/span&gt;.&lt;span style=&quot;color: rgb(102, 14, 122); font-weight: bold; font-size: 14px;&quot;&gt;sitNumber&lt;/span&gt;);&lt;br style=&quot;font-size: 14px;&quot;&gt;  &lt;span style=&quot;color: rgb(0, 0, 128); font-weight: bold; font-size: 14px;&quot;&gt;&lt;br style=&quot;font-size: 14px;&quot;&gt;&lt;/span&gt;&lt;/div&gt;&lt;div style=&quot;font-size: 14px;&quot;&gt;&lt;span style=&quot;color: rgb(0, 0, 128); font-weight: bold; font-size: 14px;&quot;&gt;&amp;nbsp; this&lt;/span&gt;.&lt;span style=&quot;color: rgb(102, 14, 122); font-weight: bold; font-size: 14px;&quot;&gt;httpService&lt;/span&gt;.&lt;span style=&quot;color: rgb(122, 122, 67); font-size: 14px;&quot;&gt;create&lt;/span&gt;(&lt;span style=&quot;color: rgb(0, 128, 0); font-weight: bold; font-size: 14px;&quot;&gt;&#39;http://127.0.0.1:5001/somewherecinema-76ded/us-central1/api/order/creatOrder&#39;&lt;/span&gt;,&lt;span style=&quot;color: rgb(0, 0, 128); font-weight: bold; font-size: 14px;&quot;&gt;this&lt;/span&gt;.&lt;span style=&quot;color: rgb(102, 14, 122); font-weight: bold; font-size: 14px;&quot;&gt;order&lt;/span&gt;);&lt;br style=&quot;font-size: 14px;&quot;&gt;}&lt;/div&gt;&lt;/div&gt;&lt;/div&gt;&lt;/div&gt;&lt;/div&gt;&lt;/div&gt;" style="verticalAlign=top;align=center;overflow=fill;fontSize=14;fontFamily=Helvetica;html=1;strokeColor=#d6b656;fillColor=#fff2cc;strokeWidth=1;movable=1;resizable=1;rotatable=1;deletable=1;editable=1;locked=0;connectable=1;" vertex="1" parent="eFFd4nhKhQjZXUS0AMBf-30">
          <mxGeometry x="145.01" y="493.6028368794326" width="984.99" height="709.2214326241135" as="geometry" />
        </mxCell>
        <mxCell id="eFFd4nhKhQjZXUS0AMBf-56" style="edgeStyle=orthogonalEdgeStyle;rounded=0;orthogonalLoop=1;jettySize=auto;html=1;exitX=0.5;exitY=1;exitDx=0;exitDy=0;fontFamily=Helvetica;fontSize=14;fontColor=default;movable=1;resizable=1;rotatable=1;deletable=1;editable=1;locked=0;connectable=1;" edge="1" parent="eFFd4nhKhQjZXUS0AMBf-30" source="eFFd4nhKhQjZXUS0AMBf-34" target="eFFd4nhKhQjZXUS0AMBf-34">
          <mxGeometry relative="1" as="geometry" />
        </mxCell>
        <mxCell id="eFFd4nhKhQjZXUS0AMBf-27" style="edgeStyle=orthogonalEdgeStyle;rounded=0;orthogonalLoop=1;jettySize=auto;html=1;fontFamily=Helvetica;fontSize=12;fontColor=default;entryX=0;entryY=0.5;entryDx=0;entryDy=0;strokeWidth=2;movable=1;resizable=1;rotatable=1;deletable=1;editable=1;locked=0;connectable=1;" edge="1" parent="eFFd4nhKhQjZXUS0AMBf-70" source="eFFd4nhKhQjZXUS0AMBf-21" target="eFFd4nhKhQjZXUS0AMBf-34">
          <mxGeometry relative="1" as="geometry">
            <mxPoint x="644.8571428571429" y="810.1524822695035" as="targetPoint" />
          </mxGeometry>
        </mxCell>
        <mxCell id="eFFd4nhKhQjZXUS0AMBf-47" value="&lt;p style=&quot;margin:0px;margin-top:6px;text-align:center;&quot;&gt;&lt;b&gt;&lt;font style=&quot;font-size: 19px;&quot;&gt;Http Service&lt;/font&gt;&lt;/b&gt;&lt;/p&gt;&lt;hr&gt;&lt;div style=&quot;background-color: rgb(255, 255, 255); font-family: &amp;quot;JetBrains Mono&amp;quot;, monospace; font-size: 9pt;&quot;&gt;async &lt;span style=&quot;color:#7a7a43;&quot;&gt;get&lt;/span&gt;(url,dto) {&lt;br&gt;  &lt;span style=&quot;color:#000080;font-weight:bold;&quot;&gt;&amp;nbsp; return &lt;/span&gt;(&lt;span style=&quot;color:#000080;font-weight:bold;&quot;&gt;await &lt;/span&gt;&lt;span style=&quot;color:#660e7a;font-weight:bold;font-style:italic;&quot;&gt;customAxios&lt;/span&gt;.&lt;span style=&quot;color:#7a7a43;&quot;&gt;patch&lt;/span&gt;(url,dto)).&lt;span style=&quot;color:#660e7a;font-weight:bold;&quot;&gt;data&lt;/span&gt;;&lt;br&gt;}&lt;/div&gt;&lt;div style=&quot;background-color: rgb(255, 255, 255); font-family: &amp;quot;JetBrains Mono&amp;quot;, monospace; font-size: 9pt;&quot;&gt;&lt;br&gt;&lt;/div&gt;&lt;div style=&quot;background-color: rgb(255, 255, 255); font-family: &amp;quot;JetBrains Mono&amp;quot;, monospace; font-size: 9pt;&quot;&gt;&lt;div style=&quot;font-size: 9pt;&quot;&gt;async &lt;span style=&quot;color:#7a7a43;&quot;&gt;create&lt;/span&gt;(url, dto) {&lt;br&gt;  &lt;span style=&quot;color:#000080;font-weight:bold;&quot;&gt;&amp;nbsp; return &lt;/span&gt;(&lt;span style=&quot;color:#000080;font-weight:bold;&quot;&gt;await &lt;/span&gt;&lt;span style=&quot;color:#660e7a;font-weight:bold;font-style:italic;&quot;&gt;customAxios&lt;/span&gt;.&lt;span style=&quot;color:#7a7a43;&quot;&gt;post&lt;/span&gt;(url,dto)).&lt;span style=&quot;color:#660e7a;font-weight:bold;&quot;&gt;data&lt;/span&gt;;&lt;br&gt;}&lt;/div&gt;&lt;/div&gt;" style="align=left;overflow=fill;html=1;dropTarget=0;strokeColor=default;fontFamily=Helvetica;fontSize=12;fontColor=default;fillColor=default;strokeWidth=5;movable=1;resizable=1;rotatable=1;deletable=1;editable=1;locked=0;connectable=1;" vertex="1" parent="eFFd4nhKhQjZXUS0AMBf-70">
          <mxGeometry x="1930" y="1127.710794326241" width="500" height="160.95744680851064" as="geometry" />
        </mxCell>
        <mxCell id="eFFd4nhKhQjZXUS0AMBf-48" value="" style="shape=component;jettyWidth=8;jettyHeight=4;strokeColor=default;fontFamily=Helvetica;fontSize=12;fontColor=default;fillColor=default;html=1;movable=1;resizable=1;rotatable=1;deletable=1;editable=1;locked=0;connectable=1;" vertex="1" parent="eFFd4nhKhQjZXUS0AMBf-47">
          <mxGeometry x="1" width="20" height="20" relative="1" as="geometry">
            <mxPoint x="-24" y="4" as="offset" />
          </mxGeometry>
        </mxCell>
        <mxCell id="eFFd4nhKhQjZXUS0AMBf-49" value="&lt;p style=&quot;margin: 6px 0px 0px; text-align: center; font-size: 18px;&quot;&gt;&lt;b style=&quot;&quot;&gt;&lt;font style=&quot;font-size: 18px;&quot;&gt;theatre Service&lt;/font&gt;&lt;/b&gt;&lt;/p&gt;&lt;hr style=&quot;font-size: 18px;&quot;&gt;&lt;div style=&quot;background-color: rgb(255, 255, 255); font-family: &amp;quot;JetBrains Mono&amp;quot;, monospace; font-size: 9pt;&quot;&gt;&lt;div style=&quot;font-size: 9pt;&quot;&gt;theatreUrl = &lt;span style=&quot;color:#008000;font-weight:bold;&quot;&gt;&#39;http://localhost:7001/api/Theatre/&#39;&lt;/span&gt;;&amp;nbsp;// this is backend url&lt;/div&gt;&lt;/div&gt;&lt;div style=&quot;background-color: rgb(255, 255, 255); font-family: &amp;quot;JetBrains Mono&amp;quot;, monospace; font-size: 9pt;&quot;&gt;&lt;br&gt;&lt;/div&gt;&lt;div style=&quot;background-color: rgb(255, 255, 255); font-family: &amp;quot;JetBrains Mono&amp;quot;, monospace; font-size: 9pt;&quot;&gt;constructor(&lt;span style=&quot;color:#000080;font-weight:bold;&quot;&gt;private &lt;/span&gt;&lt;span style=&quot;color:#660e7a;font-weight:bold;&quot;&gt;httpService&lt;/span&gt;:HttpService) { }&lt;br&gt;&lt;br&gt;&lt;span style=&quot;color:#7a7a43;&quot;&gt;getTheatre&lt;/span&gt;(id: &lt;span style=&quot;color:#000080;font-weight:bold;&quot;&gt;number &lt;/span&gt;| &lt;span style=&quot;color:#000080;font-weight:bold;&quot;&gt;undefined&lt;/span&gt;) {&lt;br&gt;  &lt;span style=&quot;color:#000080;font-weight:bold;&quot;&gt;&amp;nbsp; &amp;nbsp; return this&lt;/span&gt;.&lt;span style=&quot;color:#660e7a;font-weight:bold;&quot;&gt;httpService&lt;/span&gt;.&lt;span style=&quot;color:#7a7a43;&quot;&gt;get&lt;/span&gt;(&lt;span style=&quot;color:#000080;font-weight:bold;&quot;&gt;this&lt;/span&gt;.&lt;span style=&quot;color:#660e7a;font-weight:bold;&quot;&gt;theatreUrl &lt;/span&gt;+ &lt;span style=&quot;color:#008000;font-weight:bold;&quot;&gt;&#39;ReadTheatre&#39;&lt;/span&gt;, {&lt;span style=&quot;color:#660e7a;font-weight:bold;&quot;&gt;id&lt;/span&gt;:id});&lt;br&gt;}&lt;/div&gt;" style="align=left;overflow=fill;html=1;dropTarget=0;strokeColor=default;fontFamily=Helvetica;fontSize=12;fontColor=default;fillColor=default;strokeWidth=5;movable=1;resizable=1;rotatable=1;deletable=1;editable=1;locked=0;connectable=1;" vertex="1" parent="eFFd4nhKhQjZXUS0AMBf-70">
          <mxGeometry x="1895" y="826.2482269503546" width="570" height="203.87943262411346" as="geometry" />
        </mxCell>
        <mxCell id="eFFd4nhKhQjZXUS0AMBf-50" value="" style="shape=component;jettyWidth=8;jettyHeight=4;strokeColor=default;fontFamily=Helvetica;fontSize=12;fontColor=default;fillColor=default;html=1;movable=1;resizable=1;rotatable=1;deletable=1;editable=1;locked=0;connectable=1;" vertex="1" parent="eFFd4nhKhQjZXUS0AMBf-49">
          <mxGeometry x="1" width="20" height="20" relative="1" as="geometry">
            <mxPoint x="-24" y="4" as="offset" />
          </mxGeometry>
        </mxCell>
        <mxCell id="eFFd4nhKhQjZXUS0AMBf-51" value="" style="endArrow=open;endFill=1;endSize=12;html=1;rounded=0;fontFamily=Helvetica;fontSize=12;fontColor=default;entryX=0;entryY=0.5;entryDx=0;entryDy=0;exitX=0.411;exitY=0.424;exitDx=0;exitDy=0;exitPerimeter=0;movable=1;resizable=1;rotatable=1;deletable=1;editable=1;locked=0;connectable=1;" edge="1" parent="eFFd4nhKhQjZXUS0AMBf-70" source="eFFd4nhKhQjZXUS0AMBf-38" target="eFFd4nhKhQjZXUS0AMBf-49">
          <mxGeometry width="160" relative="1" as="geometry">
            <mxPoint x="1070" y="676.0212765957447" as="sourcePoint" />
            <mxPoint x="1230" y="676.0212765957447" as="targetPoint" />
          </mxGeometry>
        </mxCell>
        <mxCell id="eFFd4nhKhQjZXUS0AMBf-54" style="edgeStyle=orthogonalEdgeStyle;rounded=0;orthogonalLoop=1;jettySize=auto;html=1;entryX=0.5;entryY=1;entryDx=0;entryDy=0;fontFamily=Helvetica;fontSize=12;fontColor=default;movable=1;resizable=1;rotatable=1;deletable=1;editable=1;locked=0;connectable=1;" edge="1" parent="eFFd4nhKhQjZXUS0AMBf-70" source="eFFd4nhKhQjZXUS0AMBf-47" target="eFFd4nhKhQjZXUS0AMBf-49">
          <mxGeometry relative="1" as="geometry" />
        </mxCell>
        <mxCell id="eFFd4nhKhQjZXUS0AMBf-55" value="&lt;font style=&quot;font-size: 19px;&quot;&gt;&lt;font style=&quot;font-size: 19px;&quot;&gt;return promis&lt;/font&gt;e&lt;/font&gt;" style="edgeLabel;html=1;align=center;verticalAlign=middle;resizable=1;points=[];fontSize=12;fontFamily=Helvetica;fontColor=default;movable=1;rotatable=1;deletable=1;editable=1;locked=0;connectable=1;" vertex="1" connectable="0" parent="eFFd4nhKhQjZXUS0AMBf-54">
          <mxGeometry x="-0.0336" relative="1" as="geometry">
            <mxPoint y="1" as="offset" />
          </mxGeometry>
        </mxCell>
        <mxCell id="eFFd4nhKhQjZXUS0AMBf-58" value="" style="endArrow=open;endFill=1;endSize=12;html=1;rounded=0;fontFamily=Helvetica;fontSize=12;fontColor=default;entryX=-0.004;entryY=0.673;entryDx=0;entryDy=0;exitX=0.999;exitY=0.942;exitDx=0;exitDy=0;exitPerimeter=0;entryPerimeter=0;movable=1;resizable=1;rotatable=1;deletable=1;editable=1;locked=0;connectable=1;" edge="1" parent="eFFd4nhKhQjZXUS0AMBf-70" source="eFFd4nhKhQjZXUS0AMBf-38" target="eFFd4nhKhQjZXUS0AMBf-47">
          <mxGeometry width="160" relative="1" as="geometry">
            <mxPoint x="1590" y="1008.6666666666666" as="sourcePoint" />
            <mxPoint x="1750" y="1008.6666666666666" as="targetPoint" />
            <Array as="points" />
          </mxGeometry>
        </mxCell>
        <mxCell id="eFFd4nhKhQjZXUS0AMBf-59" value="&lt;p style=&quot;margin:0px;margin-top:6px;text-align:center;&quot;&gt;&lt;b&gt;&lt;font style=&quot;font-size: 17px;&quot;&gt;firebase Auth Service&lt;/font&gt;&lt;/b&gt;&lt;/p&gt;&lt;hr&gt;&lt;div style=&quot;background-color: rgb(255, 255, 255); font-family: &amp;quot;JetBrains Mono&amp;quot;, monospace; font-size: 9pt;&quot;&gt;&lt;div style=&quot;font-size: 9pt;&quot;&gt;auth: &lt;span style=&quot;color:#000080;font-weight:bold;&quot;&gt;any&lt;/span&gt;;&lt;br&gt;&lt;br&gt;&lt;span style=&quot;color:#000080;font-weight:bold;&quot;&gt;constructor&lt;/span&gt;(&lt;span style=&quot;color:#000080;font-weight:bold;&quot;&gt;public &lt;/span&gt;&lt;span style=&quot;color:#660e7a;font-weight:bold;&quot;&gt;firebaseService&lt;/span&gt;:FirebaseService) {&lt;br&gt;  &lt;span style=&quot;color:#000080;font-weight:bold;&quot;&gt;&amp;nbsp; this&lt;/span&gt;.&lt;span style=&quot;color:#660e7a;font-weight:bold;&quot;&gt;auth &lt;/span&gt;= &lt;span style=&quot;color:#660e7a;font-weight:bold;&quot;&gt;firebaseService&lt;/span&gt;.&lt;span style=&quot;color:#660e7a;font-weight:bold;&quot;&gt;firebaseApplication&lt;/span&gt;.&lt;span style=&quot;color:#7a7a43;&quot;&gt;auth&lt;/span&gt;();&lt;br&gt;  &lt;span style=&quot;color:#000080;font-weight:bold;&quot;&gt;&amp;nbsp; this&lt;/span&gt;.&lt;span style=&quot;color:#660e7a;font-weight:bold;&quot;&gt;auth&lt;/span&gt;.&lt;span style=&quot;color:#7a7a43;&quot;&gt;useEmulator&lt;/span&gt;(&lt;span style=&quot;color:#008000;font-weight:bold;&quot;&gt;&#39;http://127.0.0.1:9099&#39;&lt;/span&gt;);&lt;br&gt;}&lt;/div&gt;&lt;/div&gt;" style="align=left;overflow=fill;html=1;dropTarget=0;strokeColor=default;fontFamily=Helvetica;fontSize=12;fontColor=default;fillColor=default;strokeWidth=5;movable=1;resizable=1;rotatable=1;deletable=1;editable=1;locked=0;connectable=1;" vertex="1" parent="eFFd4nhKhQjZXUS0AMBf-70">
          <mxGeometry x="1930" y="654.5602836879432" width="500" height="150.22695035460993" as="geometry" />
        </mxCell>
        <mxCell id="eFFd4nhKhQjZXUS0AMBf-60" value="" style="shape=component;jettyWidth=8;jettyHeight=4;strokeColor=default;fontFamily=Helvetica;fontSize=12;fontColor=default;fillColor=default;html=1;movable=1;resizable=1;rotatable=1;deletable=1;editable=1;locked=0;connectable=1;" vertex="1" parent="eFFd4nhKhQjZXUS0AMBf-59">
          <mxGeometry x="1" width="20" height="20" relative="1" as="geometry">
            <mxPoint x="-24" y="4" as="offset" />
          </mxGeometry>
        </mxCell>
        <mxCell id="eFFd4nhKhQjZXUS0AMBf-63" style="edgeStyle=orthogonalEdgeStyle;rounded=0;orthogonalLoop=1;jettySize=auto;html=1;entryX=0.5;entryY=0;entryDx=0;entryDy=0;fontFamily=Helvetica;fontSize=12;fontColor=default;movable=1;resizable=1;rotatable=1;deletable=1;editable=1;locked=0;connectable=1;" edge="1" parent="eFFd4nhKhQjZXUS0AMBf-70" source="eFFd4nhKhQjZXUS0AMBf-61" target="eFFd4nhKhQjZXUS0AMBf-59">
          <mxGeometry relative="1" as="geometry" />
        </mxCell>
        <mxCell id="eFFd4nhKhQjZXUS0AMBf-61" value="&lt;p style=&quot;margin:0px;margin-top:6px;text-align:center;&quot;&gt;&lt;b&gt;&lt;font style=&quot;font-size: 20px;&quot;&gt;firebase Service&lt;/font&gt;&lt;/b&gt;&lt;/p&gt;&lt;hr&gt;&lt;div style=&quot;background-color: rgb(255, 255, 255); font-family: &amp;quot;JetBrains Mono&amp;quot;, monospace; font-size: 9pt;&quot;&gt;&lt;div style=&quot;font-size: 9pt;&quot;&gt;&lt;div style=&quot;font-size: 9pt;&quot;&gt;firebaseApplication;&lt;br&gt;&lt;br&gt;&lt;span style=&quot;color:#000080;font-weight:bold;&quot;&gt;constructor&lt;/span&gt;() {&lt;br&gt;  &lt;span style=&quot;color:#000080;font-weight:bold;&quot;&gt;&amp;nbsp; this&lt;/span&gt;.&lt;span style=&quot;color:#660e7a;font-weight:bold;&quot;&gt;firebaseApplication &lt;/span&gt;= firebase.&lt;span style=&quot;color:#7a7a43;&quot;&gt;initializeApp&lt;/span&gt;(config.&lt;span style=&quot;color:#660e7a;font-weight:bold;font-style:italic;&quot;&gt;firebaseConfig&lt;/span&gt;);&lt;br&gt;}&lt;/div&gt;&lt;/div&gt;&lt;/div&gt;" style="align=left;overflow=fill;html=1;dropTarget=0;strokeColor=default;fontFamily=Helvetica;fontSize=12;fontColor=default;fillColor=default;strokeWidth=5;movable=1;resizable=1;rotatable=1;deletable=1;editable=1;locked=0;connectable=1;" vertex="1" parent="eFFd4nhKhQjZXUS0AMBf-70">
          <mxGeometry x="1900" y="429.21985815602835" width="560" height="139.4964539007092" as="geometry" />
        </mxCell>
        <mxCell id="eFFd4nhKhQjZXUS0AMBf-62" value="" style="shape=component;jettyWidth=8;jettyHeight=4;strokeColor=default;fontFamily=Helvetica;fontSize=12;fontColor=default;fillColor=default;html=1;movable=1;resizable=1;rotatable=1;deletable=1;editable=1;locked=0;connectable=1;" vertex="1" parent="eFFd4nhKhQjZXUS0AMBf-61">
          <mxGeometry x="1" width="20" height="20" relative="1" as="geometry">
            <mxPoint x="-24" y="4" as="offset" />
          </mxGeometry>
        </mxCell>
        <mxCell id="eFFd4nhKhQjZXUS0AMBf-65" value="" style="endArrow=open;endFill=1;endSize=12;html=1;rounded=0;fontFamily=Helvetica;fontSize=12;fontColor=default;exitX=0.513;exitY=0.711;exitDx=0;exitDy=0;exitPerimeter=0;entryX=0.001;entryY=0.585;entryDx=0;entryDy=0;entryPerimeter=0;movable=1;resizable=1;rotatable=1;deletable=1;editable=1;locked=0;connectable=1;" edge="1" parent="eFFd4nhKhQjZXUS0AMBf-70" source="eFFd4nhKhQjZXUS0AMBf-38" target="eFFd4nhKhQjZXUS0AMBf-59">
          <mxGeometry width="160" relative="1" as="geometry">
            <mxPoint x="1500" y="783.3262411347517" as="sourcePoint" />
            <mxPoint x="1660" y="783.3262411347517" as="targetPoint" />
          </mxGeometry>
        </mxCell>
        <mxCell id="eFFd4nhKhQjZXUS0AMBf-69" value="&lt;font style=&quot;font-size: 43px;&quot;&gt;Frontend&lt;/font&gt;" style="shape=umlFrame;whiteSpace=wrap;html=1;pointerEvents=0;strokeColor=default;fontFamily=Helvetica;fontSize=12;fontColor=default;fillColor=default;width=382;height=133;movable=1;resizable=1;rotatable=1;deletable=1;editable=1;locked=0;connectable=1;" vertex="1" parent="eFFd4nhKhQjZXUS0AMBf-70">
          <mxGeometry y="-80" width="2580" height="1522" as="geometry" />
        </mxCell>
        <mxCell id="eFFd4nhKhQjZXUS0AMBf-71" value="&lt;font style=&quot;font-size: 40px;&quot;&gt;Backend&lt;/font&gt;" style="shape=umlFrame;whiteSpace=wrap;html=1;pointerEvents=0;strokeColor=default;fontFamily=Helvetica;fontSize=12;fontColor=default;fillColor=default;width=370;height=146;" vertex="1" parent="1">
          <mxGeometry x="-110" y="1520" width="1866" height="857" as="geometry" />
        </mxCell>
      </root>
    </mxGraphModel>
  </diagram>
</mxfile>
